<svg xmlns="http://www.w3.org/2000/svg" width="138" height="47" viewBox="0 0 138 47">
    <g fill="none" fill-rule="evenodd">
        <path fill="#78BE20" d="M60.564 38.236l-6.27 6.255h12.54z"/>
        <g fill="#010202">
            <path d="M86.839 44.453l-1.502-2.747c.681-.217 1.223-.962 1.223-1.847 0-.931-.774-1.692-1.811-1.692h-3.081v6.286h1.548v-5.06h.99c.434 0 .806.342.806.777a.82.82 0 0 1-.805.807h-.898l1.873 3.476h1.657zM90.222 39.285c-.96 0-1.409.776-1.409 2.002 0 1.226.434 1.971 1.41 1.971.96 0 1.408-.776 1.408-2.002 0-1.18-.418-1.971-1.409-1.971m.031-1.242c1.905 0 3.081 1.382 3.081 3.229 0 1.846-1.192 3.228-3.08 3.228-1.89 0-3.082-1.382-3.082-3.228-.015-1.832 1.146-3.229 3.081-3.229M95.88 40.542l1.162-2.375h1.796l-2.183 3.803-.031 2.483h-1.518v-2.452l-1.935-3.834h1.719l.99 2.344zM128.982 44.453v-6.255h-1.657l.031 6.255zM105.68 44.422l1.208-3.6v3.6h1.44l-.03-6.286h-1.936l-1.146 3.524-1.16-3.524h-1.998l.03 6.286h1.41V40.79l1.238 3.632zM111.394 39.41v1.101h2.338v1.273h-2.338v1.35h2.864v1.288h-4.397l-.03-6.286 4.396.031v1.273zM122.03 44.453h4.15v-1.412l-2.601-.031v-4.843h-1.549zM132.512 38.198l2.245 4.315v.031-4.346h1.44l.03 6.286-1.935-.03-2.508-4.284v4.283h-1.393v-6.255zM120.993 44.453l-1.502-2.747c.681-.217 1.223-.962 1.192-1.816 0-.931-.774-1.723-1.811-1.723h-3.282v6.286h1.563v-5.06h1.192a.8.8 0 0 1 .806.808.82.82 0 0 1-.806.807h-1.099l2.09 3.476 1.657-.03zM71.48 38.23v6.254h4.15v-1.443l-2.617.03.03-4.841zM76.388 38.23v6.254H80.6v-1.288h-2.663v-1.381h2.152v-1.273l-2.152.031v-1.102H80.6v-1.273z"/>
        </g>
        <path fill="#78BE20" d="M13.497 23.352h9.878v-4.548h-9.878v4.548zm0-6.193h9.878v-4.547h-9.878v4.547zM2.04 22.11v-9.498h8.794L2.04 22.11zM12.723 3.486l9.243 7.48H3.526l9.197-7.48zM3.11 23.352l8.794-9.468v9.468H3.109zm21.195 1.63c.45 0 .82-.373.82-.823v-12.37s0-.326-.448-.683c-2.818-2.297-8.485-6.89-11.318-9.188-.51-.419-.759-.404-1.27.016-1.873 1.536-8.53 6.937-11.38 9.25-.231.186-.2.652-.2.652v12.338c0 .45.371.823.82.823h22.976v-.015z"/>
        <g fill="#000" fill-rule="nonzero">
            <path d="M31.906 2.865h4.134v9.219h9.8v-9.22h4.134v22.18H45.84v-9.375h-9.8v9.375h-4.134zM52.931 16.476c0-5.99 3.159-9.002 7.664-9.002 4.552 0 7.664 2.996 7.664 9.002 0 5.93-3.112 8.971-7.664 8.971-4.505 0-7.664-3.026-7.664-8.97zm11.21 0c0-3.57-1.24-5.447-3.53-5.447-2.292 0-3.53 1.878-3.53 5.447 0 3.539 1.238 5.417 3.53 5.417 2.29.015 3.53-1.863 3.53-5.417zM85.924 25.773c0 3.321-2.647 5.898-8.53 5.898-4.196 0-7.54-1.878-7.54-5.013 0-1.242.727-2.421 1.749-3.29a3.284 3.284 0 0 1-1.208-2.546c0-1.273.697-2.623 2.137-3.383-1.146-1.056-1.78-2.484-1.78-4.113 0-3.415 2.74-5.836 6.905-5.836 1.362 0 2.57.248 3.592.73.541-.7.79-1.537.79-2.36h3.343c0 1.63-.898 2.903-2.136 3.865.82.962 1.27 2.204 1.27 3.6 0 3.384-2.71 5.867-6.875 5.867-1.115 0-2.136-.186-2.988-.512-.449.357-.635.76-.635 1.149 0 .636.573 1.21 1.626 1.21h4.614c3.514 0 5.666 1.894 5.666 4.734zm-4.134.155c0-.962-.696-1.63-1.78-1.63h-5.852c-.418.482-.604.994-.604 1.537 0 1.568 1.564 2.452 3.886 2.452 2.415 0 4.35-.807 4.35-2.359zm-7.183-12.602c0 1.598 1.114 2.778 3.05 2.778 1.873 0 3.019-1.18 3.019-2.778 0-1.63-1.146-2.779-3.02-2.779-1.904 0-3.05 1.149-3.05 2.779zM86.962 20.434c0-3.446 2.771-5.324 6.874-5.324h2.926v-1.365c0-1.661-1.115-2.716-2.647-2.716-1.332 0-2.354.822-2.803 2.017l-3.762-.993c.604-1.785 2.647-4.563 6.518-4.563 3.98 0 6.812 2.266 6.812 6.317v5.96c0 2.452.217 4.113.728 5.261h-4.335a6.148 6.148 0 0 1-.45-1.971c-.82 1.397-2.616 2.39-4.799 2.39-2.802 0-5.062-1.816-5.062-5.013zm9.8-1.21v-1.366h-2.771c-2.013 0-2.896.822-2.896 2.204 0 1.18 1.022 1.97 2.385 1.97 1.656 0 3.282-1.241 3.282-2.809zM104.658 7.893h3.948v1.91c.867-1.211 2.508-2.329 4.521-2.329 1.811 0 3.437.76 4.258 2.484 1.021-1.537 2.802-2.484 4.861-2.484 3.143 0 6.116 2.05 6.116 6.503v11.036h-4.041V14.83c0-2.359-1.3-3.476-2.864-3.476-1.564 0-2.927 1.148-2.927 3.6v10.042h-4.04V14.816c0-2.36-1.27-3.477-2.834-3.477-1.595 0-2.957 1.18-2.957 3.632v10.01h-4.04V7.894zM131.876 3.051c0-1.537 1.146-2.328 2.323-2.328 1.238 0 2.353.791 2.353 2.328 0 1.506-1.115 2.328-2.353 2.328-1.177 0-2.323-.822-2.323-2.328zm.325 4.842h4.041v17.135h-4.04V7.893z"/>
        </g>
    </g>
</svg>
