<svg xmlns="http://www.w3.org/2000/svg" width="151" height="169" viewBox="0 0 151 169">
    <g fill="none" fill-rule="nonzero">
        <g transform="translate(40.885)">
            <path fill="#FFF" d="M69.135 83.693v70.453c0 5.148-3.706 9.322-8.277 9.322h-48.63c-4.571 0-8.277-4.174-8.277-9.322V14.339c0-5.148 3.706-9.32 8.277-9.322h48.63c4.57.001 8.276 4.174 8.277 9.322v69.354"/>
            <rect width="32.512" height="9.142" x="20.286" y="1.337" fill="#F3F3F3" rx="2.652"/>
            <path fill="#F3F3F3" d="M61.107 0h-49.13C5.36.005 0 6.046 0 13.496v141.486c0 7.45 5.36 13.492 11.976 13.496h49.131c6.619 0 11.984-6.042 11.984-13.496V13.496C73.09 6.042 67.726 0 61.107 0zm8.028 83.693v70.453c0 5.148-3.706 9.322-8.277 9.322h-48.63c-4.571 0-8.277-4.174-8.277-9.322V14.339c0-5.148 3.706-9.32 8.277-9.322h48.63c4.57.001 8.276 4.174 8.277 9.322v69.354z"/>
            <path fill="#F3F3F3" d="M9.822 20.346h53.442V49.82H9.822zM12.812 73.771H84.11v2.773H12.812zM12.812 81.063H84.11v2.773H12.812zM12.812 88.354H84.11v2.773H12.812zM12.812 95.645H84.11v2.773H12.812zM12.812 102.937H84.11v2.773H12.812zM12.812 110.229H84.11v2.773H12.812zM12.812 117.521H84.11v2.773H12.812zM12.812 124.813H84.11v2.773H12.812zM26.819 137.46h49.604v2.773H26.819zM26.819 143.289h54.683v2.773H26.819zM9.51 66.292h8.05v2.879H9.51zM19.55 66.292h8.05v2.879h-8.05zM30.264 66.292h8.05v2.879h-8.05z"/>
            <ellipse cx="18.616" cy="141.378" fill="#F3F3F3" rx="5.351" ry="6.027"/>
            <path fill="#E2E2E2" d="M12.812 55.174H79.11v5.919H12.812z"/>
        </g>
        <g transform="translate(0 10.318)">
            <path fill="#DE8E68" d="M40.192 144.151l2.798-4.21 3.333 2.813-2.798 4.21zM32.278 148.88h5.082v3.73h-5.082z"/>
            <path fill="#68B456" d="M21.834 78.036s-10.268 39.514-10.268 40.315c0 .8 28.658 27.192 29.189 27.192.53 0 2.736-4.82 2.736-5.659 0-.838-6.821-7.18-6.821-7.18L21.834 78.037z"/>
            <path fill="#78be20" d="M37.564 148.962l3.187-71.574c-1.497 1.211-9.207 3.687-18.917.648.674 6.284 10.19 71.315 10.19 71.315h5.509l.031-.389z"/>
            <path fill="#EAB880" d="M21.288 56.733c-1.285-.793-14.924-10.96-17.156-10.96-2.232 0-2.049 1.483-2.049 1.931 0 .448.275 3.411 6.514 5.237.55.759 9.662 11.165 12.384 12.406.03-3.274.307-8.614.307-8.614z"/>
            <path fill="#FFE728" d="M31.89 25.536c-16.933 0-10.986 51.033-10.056 52.5.93 1.468 18.205 2.47 19.267-1.257.703-2.467 4.318-51.243-9.21-51.243z"/>
            <path fill="#333" d="M7.437 50.657L.015 45.205l4.058-2.528 7.239 5.133z"/>
            <path fill="#EAB880" d="M33.245 46.872c-.031 1.418 1.046 11.035 2.594 15.656-.586 3.403-3.808 22.448-3.808 22.448l2.265 3.3S42.582 68.449 43 65.348c.419-3.1-.587-18.475-.755-19.23-.169-.754-9 .755-9 .755z"/>
            <path fill="#FFF28A" d="M37.306 30.387c5.054-.124 6.476 15.01 5.624 16.354-.851 1.345-9.855 2.37-10.878 1.09-1.022-1.28-.095-17.312 5.254-17.444z"/>
            <path fill="#D3A571" d="M33.448 18.082H27.82v9.965c0 1.276 5.628 1.2 5.628 0v-9.965z"/>
            <ellipse cx="29.308" cy="13.431" fill="#EAB880" rx="10.27" ry="5.306" transform="rotate(-86.74 29.308 13.43)"/>
            <path fill="#5B5B5B" d="M18.243 10.35c0-.993.503-2.127.503-3.261 0-.993-.377-2.127-.377-3.545C18.369 1.134 20.508 0 21.64 0c2.139 0 2.642 1.701 6.04 1.701 2.012 0 2.893-.567 4.025-.567 3.523 0 4.026 4.962 4.026 5.53 0 2.41 2.894 2.552 2.894 5.104 0 2.41-2.265 5.245-4.026 5.245-1.761 0-3.397-1.843-3.397-2.41 0-1.276.252-1.56.252-2.41 0-2.977-5.758-3.686-6.638-3.686a20.02 20.02 0 0 0-.785 4.678c-.252.142-1.133.426-2.014.426-.629 0-3.774-.851-3.774-3.261z"/>
            <ellipse cx="33.655" cy="17.368" fill="#EAB880" rx="1.321" ry="1.489"/>
            <path fill="#000" d="M37.464 152.188h-5.402l-8.678 3.863v1.47h14.08zM46.102 142.443l-2.974 4.475-2.259 9.317.96.81 7.752-11.666z"/>
            <path fill="#508B41" d="M90.606 88.91c-.799 0-1.173 2.303-1.173 4.21.008 5.754.478 11.496 1.402 17.155.173 0 .348-.013.525-.013 2.406 0 4.356.762 4.356 1.702s-1.91 1.684-4.278 1.701c.036.187.072.373.11.559 2.318.038 4.17.784 4.17 1.701 0 .818-1.48 1.501-3.452 1.663 4.259 18.599 12.401 33.28 17.893 40.123h7.13v-6.774c-.002-11.811-18.052-62.028-26.683-62.028z"/>
            <path fill="#65AF52" d="M145.285 108.649c-4.717 0-5.219 5.702-8.41 5.702-1.232 0-1.573-1.464-1.573-2.85 0-2.364 3.388-11.138 3.672-16.772a4.931 4.931 0 0 1-1.006.102c-2.232 0-4.043-1.461-4.043-3.26 0-1.8 1.81-3.262 4.043-3.262.1 0 .2 0 .298.01-1.068-4.15-3.567-8.48-9.059-8.48-9.026 0-11.488 18.03-12.855 25.35-.847 4.537-9.855 20.807-9.855 32.848 0 10.613 2.893 19.666 3.648 19.666h9.075c0-3.261 5.628-9.285 6.967-10.934 9.262-11.409 24.533-16.598 24.533-29.944.005-2.936-.655-8.176-5.435-8.176z"/>
        </g>
    </g>
</svg>
