<svg xmlns="http://www.w3.org/2000/svg" width="201" height="123" viewBox="0 0 201 123">
    <g fill="none" fill-rule="evenodd">
        <g>
            <path fill="#B88C5E" fill-opacity=".904" fill-rule="nonzero" d="M5.215 49.238c2.113 4.37 29.828 23.444 32.837 25.872 3.01 2.428 52.013 40.035 56.022 41.833 22.937-1.136 33.213-21.412 33.213-26.552 0-5.14-24.469-41.742-35.102-43.115-1.899-.245-24.059 7.516-24.059 7.516l-48.9-47.143c-5.91-5.505-14.011 3.77-17.543 11.852-3.996 9.142 1.419 25.367 3.532 29.737z"/>
            <path fill="#7ED469" fill-rule="nonzero" d="M129.642 45.886l10.33-6.745 25.05 49.07-10.33 6.745z"/>
            <ellipse cx="157.263" cy="84.804" fill="#5B5B5B" fill-rule="nonzero" rx="3.25" ry="3.661"/>
            <path fill="#F7C48B" fill-rule="nonzero" d="M131.324 46.969c-1.212.829-8.28 4.917-10.637 4.576-2.357-.34-12.961-4.768-16.197-3.406-3.236 1.361-18.563 9.195-18.563 9.195S72.083 74.361 71.79 74.704c-.293.343-.018 2.99.404 3.413.422.423 5.18 2.083 5.968 1.53.788-.553 11.429-9.993 13.343-9.993 1.915 0 20.179 15.178 31.058 28.575 2.51-1.262 25.671-17.393 25.671-17.393l-16.91-33.867zM56 88.687s-.988 5.926 1.198 9.3c2.186 3.375 19.198 15.299 21.597 15.674 2.398.376 6.774-3.229 7.268-5.247.494-2.019-2.682-9.45-3.6-10.495-.916-1.046-14.042-10.806-15.455-11.034-1.413-.228-8.82.377-11.008 1.802z"/>
            <path stroke="#5B5B5B" stroke-linecap="round" stroke-linejoin="round" stroke-width="1.529" d="M57.944 99.043l9.39-7.323M65.167 105.552l9.39-7.323M72.39 110.434l6.502-5.696M115.73 107.993l-26.004-24.41M107.062 112.875L90.45 97.415M99.839 116.13L86.115 103.11"/>
            <path fill="#5B5B5B" fill-rule="nonzero" d="M40.962 49.074a12.875 12.875 0 0 1 1.32 17.02l-1.56 2.063c-3.362 4.447-9.693 5.327-14.14 1.965a10.095 10.095 0 0 1-.93-.796 12.875 12.875 0 0 1-1.32-17.02l1.559-2.062a10.095 10.095 0 0 1 15.07-1.17z"/>
            <path fill="#FFF28A" fill-rule="nonzero" d="M45.776 32.75l9.056 8.758-9.148 12.1-9.056-8.757z"/>
            <ellipse cx="44.942" cy="114.502" stroke="#FFE728" stroke-width="7.637" rx="3.612" ry="4.068"/>
            <ellipse cx="139.205" cy="108.4" fill="#FFE728" stroke="#FFE728" stroke-width="7.637" rx="2.528" ry="2.848"/>
            <ellipse cx="120.425" cy="38.425" fill="#FFE728" stroke="#FFE728" stroke-width="7.637" rx="2.528" ry="2.848"/>
            <path fill="#FFF" fill-rule="nonzero" d="M62.278.591h46.951v21.155H62.278z"/>
            <path fill="#FFF" fill-rule="nonzero" d="M97.31 29.068l3.251-8.136h-6.5z"/>
            <path fill="#508B41" fill-rule="nonzero" d="M197.565 4.495c-.92-2.307-3.317-2.307-7.192 0 0 0-38.681 26.266-50.806 34.15l20.185 39.243c18.035-8.282 29.365-15.356 33.989-21.222 6.935-8.8 6.576-17.81 6.576-27.214s-1.371-21.495-2.752-24.957z"/>
        </g>
        <path fill="#BABABA" fill-rule="nonzero" d="M67.212 4.765h37.543v3.076H67.212zM78.133 11.419h26.621v3.076H78.133z"/>
    </g>
</svg>
