<svg xmlns="http://www.w3.org/2000/svg" width="226" height="170" viewBox="0 0 226 170">
    <g fill="none" fill-rule="evenodd">
        <path fill="#E4F0E1" d="M194.755 169.34c-1.4 0-2.809-.06-4.233-.211-5.44-.573-10.956-.86-16.37-1.678-12.424-1.88-24.854-1.99-37.368-1.99-4.97 0-9.938-.052-14.906-.052-7.233 0-14.465.11-21.684.656-11.263.852-22.544.987-33.827.987-1.701 0-3.404-.003-5.105-.007h-.33c-6.246 0-12.469.434-18.706.741-6.265.309-12.358.815-18.587.815-.562 0-1.126-.004-1.69-.013-6.224-.096-15.701-2.144-20.142-7.364-2.636-3.101-2.279-10.562.362-13.553 1.153-1.306 3.013-2.33 4.531-2.951 4.327-1.774 8.73-1.778 13.252-1.815h.165c3.12 0 6.364.71 9.355 1.697 2.72.897 5.5 1.212 8.267 1.77 2.263.458 4.686.677 7.081.677 1.56 0 3.107-.093 4.592-.273 4.018-.487 8.064-.714 12.093-1.098 5.003-.477 9.899-1.511 14.885-2.066 2.495-.277 4.934-.965 7.424-1.278 6.605-.83 13.22-1.01 19.837-1.032a463.83 463.83 0 0 1 1.607-.002c3.15 0 6.301.027 9.45.027 2.56 0 5.118-.01 7.676-.01 8.759 0 17.51.102 26.244 1 2.707.277 5.396.109 8.065.77 2.679.664 5.384 1.27 8.129 1.389 2.35.101 4.707.134 7.067.134 4.193 0 8.395-.105 12.575-.122.419-.002 1.002-.005 1.726-.005 9.36 0 41.96.486 39.62 10.311-.899 3.776-6.123 8.69-9.054 10.271-3.702 1.998-7.75 3.181-11.826 3.58-3.434.335-6.783.696-10.175.696"/>
        <path fill="#EAC1A4" d="M72.65 55.593c.033-.032.07-.068.109-.113.365-.424.537-1.074.452-1.655l-.966-.272a4.371 4.371 0 0 1-.665 1.124c-.061.075-.137.153-.227.144-.085-.008-.147-.09-.197-.167-.74-1.128-1.093-2.57-.973-3.967-.007.083-.876-.138-.954-.167-.4-.148-.498-.16-.903.002a.626.626 0 0 0-.18.072l-.598.24c-.126.05-.26.107-.337.231-.074.121-.078.279-.078.426l-.005 3.953c0 .165 0 .336.055.488.062.17.184.3.306.42a6.57 6.57 0 0 0 1.9 1.306c.126.056.26.113.345.232.067.092.097.21.125.324l.535 2.186a7.06 7.06 0 0 1 2.54-.467 6.64 6.64 0 0 0-.304-2.97c-.093-.27-.24-.606-.224-.903.014-.278.105-.335.244-.467"/>
        <path fill="#5B5B5B" d="M69.164 58.047l4.02-.744 4.101 12.675 9.689-1.864-2.11 14.584-12.325-8.336-3.375-16.315"/>
        <path fill="#BB946A" d="M136.02 130.186l.147 10.101c-.06 2.803.163 5.597.314 8.39.14 2.595-.323 5.27.767 7.674.342.754 1.07 1.28 1.623.409.426-.672.23-1.833.336-2.613.791-5.856 2.265-11.566 3-17.433.77-6.146-1.335-5.983-6.187-6.528"/>
        <path fill="#292949" d="M136.528 154.625l-.575 1.684 2.83 2.814 2.592.12.838-1.544-3.486-3.424-2.199.35"/>
        <path fill="#BB946A" d="M129.684 130.285l-1.632 9.933c-.565 4.444-1.85 8.771-2.416 13.215-.13 1.022-.065 2.14-.443 3.104-.37.942-1.093.98-1.732.34-.856-.857-.462-2.388-.446-3.56.105-7.798-.439-15.486-.569-23.297-.002-.102.003-.22.072-.284.058-.054.138-.053.212-.047.672.05 6.918.81 6.954.596"/>
        <path fill="#292949" d="M122.995 155.04l-.897 1.494 2.194 3.462 2.502.778 1.125-1.291-2.712-4.224-2.212-.22"/>
        <path fill="#202020" d="M145.238 136.613l-1.22-14.442-.589-9.383-1.978-7.663-10.684-1.873-13.208 2.557-.635 2.898 2.542 26.828 12.74 1.078-.173-16.697 1.965 10.35-.083 6.347h11.323"/>
        <path fill="#FFF" d="M120.363 76.908c-.018.488-.03.975-.038 1.462-.154 9.906.33 19.938.385 29.926a87.206 87.206 0 0 1 13.692-1.32c1.061-.018 5.885.823 6.557.108.911-.971-.09-.788-.024-2.053.086-1.637-.61-2.978-.347-4.917.309-2.28.924-4.534 1.278-6.813.71-4.57 1.138-9.195 1.276-13.832.124-4.113-.008-8.379-1.575-12.094-3.861-9.163-16.312-8.998-19.728.569-1.012 2.834-1.363 5.902-1.476 8.964"/>
        <path fill="#BB946A" d="M145.211 57.305c1.531-1.75 2.332-3.762 3.178-6.311.63-1.898 1.194-3.826 1.75-5.752.368-1.274.698-2.388.862-3.697.138-1.096.85-2.539.091-3.535.221-.419.815-.492 1.11-.137.047.056.089.122.152.15.108.048.227-.034.306-.13.23-.28.3-.678.412-1.04.18-.584.48-1.527.926-1.9.361-.304.808-.442 1.242-.573.08-.025.169-.049.245-.011.065.03.108.1.148.165.368.606.787 1.206 1.084 1.85-.636.462-.824 1.255-1.234 1.932-.537.89-1.149 1.566-1.342 2.672-.302 1.719-.484 3.462-.805 5.18-.629 3.355-1.439 6.66-2.231 9.97-.531 2.19-1.073 4.433-2.111 6.4-1.022 1.937-2.291 3.008-3.962 4.24-.385.284-.783.574-1.235.662-.686.134-1.386-.227-1.907-.748-1.379-1.377-1.643-3.96-.58-5.657.57-.91 1.428-1.528 2.24-2.164a12.15 12.15 0 0 0 1.661-1.566"/>
        <path fill="#FFE728" d="M134.412 64.055l-3.381 6.96.53 21.092.244 9.721c.028 1.125.053 2.25.085 3.376.014.504-.11 1.354.146 1.767.553.894 2.577.615 3.46.693 1.376.123 2.773.25 4.07.787.864.357 1.682.895 2.592 1.04.205.032.434.037.594-.11.18-.164.21-.455.228-.715.316-4.827.323-9.803.56-14.681.194-3.993.688-8.212.382-12.21a2.358 2.358 0 0 0-.022-.199c-.314-1.923 0-8.274 0-8.275.013-.267.822-.96.979-1.141l2.413-2.816c1.605-1.872 4.704-4.185 3.458-7.213-.151-.368-.382-.688-.628-.984-1.818-2.2-4.143-3.434-5.445-6.143-2.278 1.27-4.135 3.777-6.558 4.821-1.262.543-2.596.73-3.915.364-.776-.215-2.447-.898-2.027.836.24.993 1.642 2.233 2.235 3.03M127.055 64.71l3.382 6.96c-.07 0-.43 17.06-.458 18.212l-.33 13.138c-.03 1.217.114 2.643-.097 3.84-.294 1.67-1.851 1.341-3.178 1.476-2.902.296-5.958.855-8.868.69-.84-.048.265-19.835.263-21.681-.005-6.641-1.218-14.01 1.769-20.031.869-1.753 2.4-4.562 4.092-5.427 1.576-.806 3.832-.943 5.543-1.395l.089 1.252-2.207 2.965"/>
        <path fill="#202020" d="M134.395 47.85c.532 1.054.789 2.268.836 3.48.012.322.032.695.263.885.247.203.03.65.217.378.188-.273.826-1.22.855-1.563.067-.805.066-1.618-.003-2.423-.06-.7-.187-1.433-.593-1.966-.24-.317-.562-.54-.878-.755-.458-.313-.93-.629-1.457-.74-.908-.19-1.465.177-.664.892.574.512 1.059 1.09 1.424 1.813"/>
        <path fill="#BB946A" d="M128.723 61.599c.006.496-.084 1.01.304 1.395.186.185.438.26.683.303.633.113 1.289.06 1.901-.152.253-.088.504-.207.694-.413.225-.244.236-.475.247-.794.013-.374.08-.754.123-1.133.094-.83.137-1.666.159-2.501 1.087-.21 2.366-.608 2.738-1.895.117-.405.121-.846.124-1.277l.035-5.348c.004-.617.005-1.252-.182-1.824-.328-1.004-1.161-1.603-1.979-1.98-2.086-.96-4.517-.922-6.442.445-.513.364-.996.831-1.292 1.467-.454.979-.397 2.188-.326 3.318l.195 3.129c.075 1.2.235 2.58 1.06 3.214.437.337 1.003.398 1.381.834.659.76.345 1.895.54 2.815.027.13.035.262.037.397"/>
        <path fill="#202020" d="M132.142 56.931c-.567.43-1.191.454-1.823.24-.268-.092-.155-.601.114-.51.524.178 1.018.174 1.49-.184.237-.18.455.275.219.454zm3.937-2.51c-.018-.33-.146-1.3-.586-.69-.115.159-.143.384-.15.596-.008.212.001.43-.058.63-.136.458-.585.666-.984.658a.875.875 0 0 1-.462-.123c-.137-.088-.245-.227-.35-.364l-.77-.998c-.442-.572-1.317-.325-1.911-.237-.686.1-1.37.334-1.93.844-.057.05-.112.105-.168.159a2.08 2.08 0 0 1-.427.348c-.53.29-1.184-.013-1.555-.557-.17-.25-.329-.57-.593-.612-.206-.033-.407.134-.513.353-.106.218-.134.478-.149.73-.052.922.06 1.871.414 2.688.766 1.77 2.248 1.989 3.737 1.949l1.766-.047c1.076-.029 2.213-.08 3.12-.786.799-.623 1.274-1.683 1.47-2.793.1-.572.13-1.164.099-1.748z"/>
        <path fill="#BBBBBC" d="M106.363 16.461l.726 6.952c.124 1.182-.662 2.235-1.756 2.352-1.093.117-2.08-.747-2.204-1.93l-.726-6.951c-.124-1.183.662-2.236 1.756-2.353 1.093-.116 2.08.748 2.204 1.93"/>
        <path fill="#DDD" d="M107.1 21.191c-1.538.72-3.069 1.457-4.592 2.21-.432.213-.158.967.277.752 1.524-.753 3.055-1.49 4.593-2.21.436-.204.162-.958-.278-.752M106.837 18.673c-1.538.72-3.069 1.457-4.593 2.21-.431.214-.158.967.278.752 1.524-.753 3.054-1.49 4.592-2.21.437-.204.162-.958-.277-.752M106.375 16.495c-1.538.72-3.069 1.456-4.593 2.21-.431.213-.157.966.278.751 1.524-.753 3.055-1.49 4.592-2.21.437-.204.162-.957-.277-.751"/>
        <path fill="#AFBCC6" d="M105.19 14.806c-.909.288-1.814.589-2.714.907-.664.234-1.75.391-2.216 1.062-.445.64-.325 1.776-.328 2.54a26.665 26.665 0 0 0 .175 3.16c.108.94.271 1.87.473 2.789.158.72.342 1.422 1.04 1.624 1.516.44 3.406-.648 4.752-1.334.8-.408.32-1.871-.488-1.46-1.12.57-2.232 1.118-3.458 1.269-.46.057-.416.019-.535-.498a21.206 21.206 0 0 1-.23-1.175 26.219 26.219 0 0 1-.372-4.198c-.003-.381-.026-.824.02-1.2.064-.523.09-.479.455-.685.54-.305 1.226-.446 1.8-.644a90.716 90.716 0 0 1 2.112-.697c.846-.269.355-1.728-.487-1.46"/>
        <path fill="#AFBCC6" d="M108.54 14.208c-.682.11-1.334.325-2.019.427a9.853 9.853 0 0 0-.32.04c-.91.128-.835 1.666.1 1.58.242-.021.482-.05.721-.085.578-.035 1.14.069 1.396.735.336.875.415 1.954.467 2.89.055.993.007 1.984-.149 2.962-.092.578-.02.659-.523.828-.447.15-.896.295-1.345.442-.456.15-.553.619-.42 1-.027.356.139.717.556.792 1.238.224 2.81.27 3.467-1.163.338-.736.187-1.68.164-2.47l-.082-2.848c-.039-1.34.276-3.463-.577-4.588-.37-.488-.883-.632-1.435-.542"/>
        <path fill="#CCC" d="M98.327 24.479c-1.841.662-3.697 1.156-5.591 1.62-1.267.31-2.5.649-3.792.808-1.274.157-2.552.275-3.82.478-.947.151-4.033.346-4.06 1.79-.015.872 1.026 1.413 1.634 1.728.902.467 1.837.933 2.758 1.33a32.735 32.735 0 0 0 8.605 2.399c2.328.313 4.713.364 6.988-.173.262-.062.523-.131.782-.209.108-.032.222-.07.296-.162.107-.135.092-.337.07-.515a76.83 76.83 0 0 0-1.545-8.565c-.086-.36-.192-.747-.467-.973-.447-.365-1.408.282-1.858.444"/>
        <path fill="#DDD" d="M108.343 14.529c.368-.124.738.16.781.6l.791 8.058c.035.36-.164.698-.466.792l-3.01.94.779 7.645c.024-.131.886-.564 1.13-.842.434-.495.869-.798 1.418-1.144 3.5-2.203 7.349-4.243 11.548-3.308 6.754 1.505 13.483 3.197 20.204 4.868 6.82 1.697 13.623 3.471 20.39 5.41l.406.116c3.347.962 6.686 1.964 10.027 2.954 1.738.515 3.475 1.027 5.216 1.529 1.871.54 3.251 1.386 4.879-.197 1.452-1.414 2.585-3.562 3.058-5.604.388-1.677.375-3.41.01-5.102-.393-1.827-.698-4.191-2.744-4.506-.898-.14-1.787-.279-2.675-.483-13.415-2.514-26.996-4.909-40.4-7.813-.95-.206-1.9-.411-2.85-.614-3.515-.75-9.47-2.265-12.964-3.14-6.806-1.703-8.717-4.493-13.784-8.133a112.872 112.872 0 0 1-5.991-4.638l1.383 13.576 2.864-.964"/>
        <path fill="#DDD" d="M92.863.585C88.738 1.668 81.6 11.295 79.627 13.613c-1.972 2.318.53 3.632.53 3.632a135.913 135.913 0 0 1 5.262-1.473c.942-.243 1.885-.477 2.83-.706.47-.114.943-.232 1.416-.34.378-.087.776-.05 1.165-.103a14.16 14.16 0 0 1 1.304-.135c.833-.035 1.779.025 2.583.297.283.095.809.447.842.83l1.825 20.983c.022.249.262.404.474.307l9.36-4.34c-.002 0-.583-.15-1.026-1.47-.303-.904-.514-1.841-.695-2.78-.188-.98-.329-1.968-.462-2.957l-2.505.782c-.77.24-1.529-.378-1.59-1.296l-.474-7.055c-.023-.345.168-.665.456-.762l2.894-.974a164.461 164.461 0 0 1-.92-15.136c.398.336.799.668 1.2 1l-.062-.611C101.695.029 96.988-.5 92.864.585"/>
        <path fill="#EFEFEF" d="M105.035 25.358c.133.99.274 1.977.462 2.957.18.939.392 1.876.695 2.78.443 1.32 1.024 1.47 1.026 1.47l-.78-7.646-1.403.439M103.816 16.053l1.663-.56-1.383-13.577c-.401-.33-.802-.663-1.2-1 .073 5.055.38 10.108.92 15.137"/>
        <path fill="#508B41" d="M140.647 32.507l.369.092c7.263 1.806 14.51 3.696 21.718 5.761l.433.124c3.566 1.025 7.122 2.092 10.68 3.147 1.851.548 3.703 1.094 5.557 1.628 1.992.575 3.463 1.477 5.197-.21 1.547-1.505 2.754-3.793 3.257-5.969.413-1.786.4-3.633.011-5.435-.42-1.945-.743-4.463-2.923-4.8-.956-.147-1.903-.296-2.85-.513-12.735-2.387-26.174-4.81-38.931-7.47l-2.518 13.645"/>
        <path fill="#E9E9E9" d="M138.057 28.684c-.107 0-.216-.014-.325-.043-4.246-1.143-17.24-4.618-19.741-5.022a6.316 6.316 0 0 0-1.009-.078c-1.634 0-3.273.558-4.318 1.001a.87.87 0 0 1-.341.07c-.458 0-.879-.367-.941-.897a373.013 373.013 0 0 1-.7-6.358c-.107-1.07-1.198-5.333.287-5.573a.346.346 0 0 1 .054-.004c.727 0 2.988 1.948 3.596 2.333 1.089.69 2.184 1.374 3.25 2.105 1.207.826 16.57 4.397 21.195 5.46.723.166 1.192.931 1.048 1.71l-.767 4.155c-.125.68-.674 1.141-1.288 1.141"/>
        <path fill="#FFF28A" d="M77.703 98.925l-1.182 14.1-.335 12.35 4.846 32.587 3.303.29 4.197-30.447 6.63-30.234-17.46 1.354"/>
        <path fill="#292949" d="M84.347 157.807l-.14 2.017-3.71 1.703-1.647-2.174 1.925-1.86 3.572.314"/>
        <path fill="#FFF28A" d="M98.882 98.287l-.508 27.089-2.307 31.989-3.304.29-4.196-30.448-6.631-30.233 16.946 1.313"/>
        <path fill="#292949" d="M92.752 157.21l.139 2.016 3.71 1.704 1.648-2.174-1.925-1.86-3.572.313"/>
        <path fill="#5B5B5B" d="M102.136 103.858c.043 2.356-.019 5.532-.771 5.648-.141.022-.277-.062-.4-.143-1.302-.855-2.223-2.057-3.506-2.883-1.344-.865-2.883-1.325-4.391-1.647-2.256-.496-4.562-.803-6.86-.851-1.808-.039-3.623.146-5.423.327-1.497.15-2.89.683-4.415.556a8.699 8.699 0 0 1-4.438-1.694c-.05-.036-.101-.077-.121-.141-.023-.071-.001-.15.02-.22.32-1.053.55-2.095 1.129-2.966.647-.973 1.107-2.209 1.575-3.316.976-2.309 1.894-4.727 2.576-7.186 1.03-3.343 2.207-6.598 3.203-9.952.69-2.324 1.32-4.69 2.256-6.893.733-1.725 2.04-4.246 3.614-5.006.533-.257 1.12-.28 1.695-.3.25-.009.49-.032.74-.012-.14.436-.28.916-.138 1.351.123.376.438.634.77.773.127.053.26.091.395.094.112.003.223-.019.331-.052a1.76 1.76 0 0 0 .415-.189c.58-.36.947-1.032 1.236-1.702.04-.093.08-.186.139-.263.141-.184.364-.147.559-.154l.775-.026c.635-.022 1.295-.038 1.874.276.867.471 1.357 1.566 1.785 2.588 1.921 4.58 3.146 9.52 3.832 14.612.359 2.66.69 5.324.948 7.998.288 2.985.485 5.983.527 8.986.004.333.049 1.268.069 2.387"/>
        <path fill="#F7C48B" d="M88.361 68.61c-.017.276-.01.545.06.787.21.747.703 1.405 1.352 1.682.345.148.765.175 1.056-.082.143-.126.239-.306.326-.486.773-1.593.904-3.124.758-4.91.01.113 1.66-.87 1.806-1.093.42-.642.47-1.72.645-2.484.372-1.626.722-3.458-.039-4.902-.788-1.495-2.494-2.007-4.034-2.053-1.934-.057-4.094.58-5.088 2.454-.898 1.693.235 4.19.558 5.98.16.882.403 1.89 1.13 2.262.385.198.853.177 1.198.456.638.518.327 1.499.272 2.389"/>
        <path fill="#202020" d="M94.452 58.548c.385 1.229.285 2.618-.17 3.815a14.278 14.278 0 0 0 2.176-3.901c.177-.48.333-.992.29-1.51-.07-.861-.66-1.539-1.229-2.118-.518-.527-1.068-1.05-1.73-1.297-.662-.247-1.467-.16-1.949.41-.872 1.033-.042 1.673.621 2.138.903.633 1.62 1.279 1.99 2.463"/>
        <path fill="#78be20" d="M101.49 119.498c-.008-.579.382-1.059.866-1.067l4.569-.076c.484-.008.887.46.894 1.038l.01.735 19.387-.32 7.7-9.391a.09.09 0 0 1 .077-.037l-.082-6.284c-.026-2.023-1.226-3.658-2.667-3.634l-15.716.26.032 2.453c.012.93-.516 1.695-1.179 1.705-.663.012-1.21-.734-1.222-1.665l-.032-2.453-13.097.217.034 2.62c.025.93-.492 1.708-1.155 1.737h-.023c-.652.011-1.197-.713-1.221-1.633l-.036-2.684-8.95.148c-.752.012-1.427.474-1.898 1.202l-5.046 6.031-.933 1.113c-.324.622-.51 1.391-.5 2.216l.115 8.837 20.082-.333-.01-.735"/>
        <path fill="#68B456" d="M127.26 119.76l-19.427.328.015 1.161c.007.588-.383 1.075-.867 1.083l-4.569.077c-.484.008-.887-.466-.894-1.053l-.015-1.162-20.082.338.244 19.033c.026 2.054 1.226 3.714 2.667 3.69l42.564-.716c.546-.009 1.051-.26 1.468-.678l.341-.41 5.428-6.497c.129-.127.245-.272.357-.426l.015-.022c.482-.69.782-1.641.769-2.69l-.276-21.587-7.669 9.494a.093.093 0 0 1-.07.038"/>
        <path fill="#6D2727" d="M135.07 110.433c-.02-.033-.049-.05-.077-.053l.005.344.062-.075a.198.198 0 0 0 .01-.216M81.31 120.721c0 .085.05.153.111.152l-.004-.307c-.06.001-.108.07-.107.155"/>
        <path fill="#FFF" d="M134.916 110.417l-7.7 9.39-19.387.321.004.307 19.427-.322c.026 0 .05-.013.07-.037l7.668-9.352-.005-.344a.09.09 0 0 0-.077.037M101.499 120.233l-20.082.333.004.307 20.082-.333-.004-.307"/>
        <path fill="#202020" d="M100.992 98.067c-.014-1.098.611-2.003 1.393-2.016l10.26-.17c.782-.013 1.43.87 1.444 1.969l.038 2.912 2.401-.04-.038-2.912c-.038-2.957-1.783-5.335-3.89-5.3l-10.258.17c-2.107.035-3.789 2.47-3.75 5.427l.037 2.912 2.401-.04-.038-2.912M114.159 103.215c.012.93.56 1.677 1.222 1.665.663-.01 1.191-.774 1.18-1.705l-.033-2.453-2.4.04.03 2.453"/>
        <path fill="#202020" d="M99.886 105.336h.023c.663-.03 1.18-.807 1.155-1.738l-.034-2.62-2.4.04.035 2.685c.024.92.569 1.644 1.22 1.633M101.518 121.684c.007.58.41 1.046.894 1.038l4.569-.076c.484-.008.874-.488.867-1.067l-.015-1.144-6.33.105.015 1.144M106.925 118.355l-4.569.076c-.484.008-.874.488-.867 1.067l.01.735 6.33-.105-.01-.735c-.007-.579-.41-1.046-.894-1.038M101.503 120.54l6.33-.105-.004-.307-6.33.105.004.307"/>
        <path fill="#EACDB0" d="M167.958 76.258a.604.604 0 0 1 .163-.09c.531-.16.893.116 1.44.126.245.004.596-.586.866-.097.1.18.29.662.5 1.05.305.564.995 1.07 1.608 1.359 2.41 1.132 5.025 1.493 7.623 1.758.148.015.303.028.44-.036.247-.114.359-.428.451-.71a23.916 23.916 0 0 1 1.598-3.768c.566-1.067 1.231-2.105 2.15-2.792.918-.688 2.134-.972 3.14-.464.752.38 1.322 1.193 1.476 2.108.382 2.27-2.108 4.136-3.36 5.522a37.03 37.03 0 0 1-3.787 3.64c-.165.138-.337.277-.536.33-.213.056-.435.01-.65-.038-2.758-.609-5.453-1.49-8.147-2.436-.74-.26-1.265-.927-1.951-1.16-.439-.15-.877.09-1.318.052a3.88 3.88 0 0 1-1.393-.427c-.775-.426-.936-1.415-1.151-2.264-.053-.21-.09-.353-.053-.555.061-.328.28-.54.49-.76.123-.129.257-.248.4-.348"/>
        <path fill="#5D66D3" d="M186.16 79.337l-4.389-2.615c.094.056 3.097-7.74 3.29-8.197.735-1.745 1.51-3.546 2.823-4.784 2.806-2.644 7.061-.112 6.368 4.085-.751 4.556-3.106 9.17-6.135 12.28-.066.067-.137.136-.223.158-.12.03-.24-.037-.348-.101l-1.385-.826"/>
        <path fill="#F7C48B" d="M180.782 156.83c-.666 0-1.311-.178-1.968-.264-.54-6.789-1.06-13.87-.997-20.67 1.67.151 4.264.302 5.934.454-1.053 3.599.372-1.623 0 2.162-.059.6-2.874 18.319-2.97 18.319"/>
        <path fill="#292949" d="M178.573 155.244c-.413-.09-.65.092-.917.344-.155.147-.257.358-.446.46-.189.102-.377.117-.605.133-1.199.084-3.971-.066-2.432 2.087 1.397 1.954 4.935 1.32 6.976.874.135-.03.277-.046.373-.152a.953.953 0 0 0 .195-.419c.208-.89.496-1.999-.572-2.412-.456-.176-.862.121-1.345-.068-.395-.156-.813-.756-1.227-.847"/>
        <path fill="#202020" d="M176.243 139.934l9.318-.204a922.76 922.76 0 0 0 6.635-40.72c.148-1.057.292-2.156.022-3.182-.51-1.94-2.35-3.047-4.111-3.42-2.738-.577-7.768.228-9.172 3.442-1.484 3.398-1.235 9.465-1.594 13.22a257.49 257.49 0 0 0-1.098 30.864"/>
        <path fill="#F7C48B" d="M198.464 156.532c.609.023 1.447-.134 2.045-.196.309-6.696 1.174-13.713.93-20.44-1.523.091-4.47.183-5.994.275 1.06 3.595 1.305 7.36 1.748 11.116.07.596 1.184 9.241 1.27 9.245"/>
        <path fill="#292949" d="M200.693 155.037c.376-.076.598.113.849.372.145.15.244.363.42.47.175.108.347.129.556.152 1.099.125 3.63.074 2.281 2.149-1.224 1.884-4.476 1.134-6.355.622-.124-.033-.254-.054-.345-.162a1.047 1.047 0 0 1-.19-.422c-.214-.886-.508-1.994.458-2.365.412-.159.791.149 1.227-.021.357-.14.723-.72 1.1-.795"/>
        <path fill="#202020" d="M203.43 139.934l-9.318-.204a922.762 922.762 0 0 1-6.635-40.72c-.148-1.057-.292-2.156-.023-3.182.51-1.94 2.35-3.047 4.112-3.42 2.738-.577 7.768.228 9.171 3.442 1.484 3.398 1.235 9.465 1.595 13.22a257.539 257.539 0 0 1 1.097 30.864"/>
        <path fill="#68B456" d="M195.465 65.864c2.49 2.677 4.355 6.115 5.479 9.676 1.99 6.307 2.027 13.04 2.046 19.64l.018 6.587c.006 2.16-.163 2.626-2.242 2.341-3.853-.528-7.859-1.425-11.35-3.359-1.661-.92-3.213-2.082-4.955-2.807-2.534-1.053-5.131-.576-7.638-1.262.636-2.17 1.586-4.153 2.028-6.43.443-2.28.652-4.61.792-6.937.243-4.068.691-8.112.961-12.164.193-2.903-.145-5.28 2.589-7.184 1.488-1.037 4.195-2.81 6.295-2.33 2.228.508 4.585 2.733 5.977 4.23"/>
        <path fill="#F7C48B" d="M186.48 56.613c.471 1.16 1.24 2.128 1.867 3.19.61 1.033.83 1.967.992 3.165.117.865.39 1.541 1.312 1.69 1.502.242 1.318-1.729 1.873-2.68.821-1.408 2.542-1.506 3.584-2.944.96-1.324 1.347-3.204 1.903-4.768.385-1.082.776-2.25.546-3.386-.364-1.8-2.077-2.743-3.593-3.437-2.613-1.195-5.592-1.818-7.465 1.114-1.342 2.1-2.002 5.627-1.018 8.056"/>
        <path fill="#202020" d="M195.035 52.907c.584.022 1.225.07 1.655.515.43.447.376 1.427-.196 1.538-.519.1-1.185-.514-1.504-.058-.187.266-.027.651.111.96a6.358 6.358 0 0 1 .423 3.823c.212.225.546-.013.734-.251a13 13 0 0 0 2.158-4.032c.184.355.456.657.777.863-.19-.553-.063-1.161.06-1.728.453-2.084.768-4.523-.487-6.212-.671-.904-1.698-1.418-2.733-1.63-1.034-.21-2.091-.148-3.135-.085-.447.027-.999.142-1.109.618.977.442 1.985 1.31 2.468 2.371.149.326.719 3.306.778 3.308"/>
        <path fill="#202020" d="M192.997 47.927l.105.09c.442.383.855.851 1.391 1.019.773.241 1.608-.195 2.37.102.85.33 1.402 1.495 2.02 2.182.2.221.74.96 1.049.87.44-.127.529-1.218.466-1.599-.099-.601-.465-1.117-.519-1.727-.054-.622.224-1.215.426-1.801.201-.586.316-1.303-.016-1.795-.17-.25-.448-.428-.503-.74-.035-.2.032-.404.043-.607.057-1.06-1.307-1.717-2.02-1.872-.897-.195-1.797.269-2.696.477a4.87 4.87 0 0 1-2.252-.013c-.66-.161-1.304-.463-1.981-.45-1 .02-1.922.742-2.511 1.678-.834 1.323-1.382 3.58-1.103 5.31-.043-.268.752-1.25.916-1.46.346-.445.762-.864 1.285-.94 1.185-.172 2.584.492 3.53 1.276"/>
        <path fill="#DCDEE2" d="M159.436 71.795l-4.465-.137c-.356-.01-.637-.346-.627-.748l.297-12.35c.01-.402.306-.72.663-.709l4.464.137-.332 13.807M176.774 59.726l-10.031-.308-.274 11.377 10.308.316c6.257-5.5 12.643-.456 12.643-.456l.845-1.324c-3.434-7.338-13.491-9.605-13.491-9.605"/>
        <path fill="#BABABA" d="M165.915 59.897c-4.01 2.287-6.147-1.909-6.147-1.909l-.144 6.006-.004.172-.035 1.45-.004.173-.145 6.006s2.335-4.06 6.23-1.53l.803.53.274-11.377-.828.48M173.988 104.34l-6.37-.195.8-33.29 6.37.195-.8 33.29"/>
        <path fill="#474EBB" d="M169.873 142.882c-2.59-.08-4.634-2.516-4.564-5.442l.758-31.515 1.6-3.867 6.37.196 1.412 3.96-.757 31.514c-.07 2.926-2.228 5.234-4.819 5.154"/>
        <path fill="#E9E9E9" d="M169.784 142.878c-.034 0-.069 0-.103-.002-1.622-.05-3.03-1.155-3.879-2.81.017 0 .033-.002.05-.003.753 1.605 2.218 2.727 3.932 2.815m5.41-26.014l.15-6.255v-.001l-.15 6.256"/>
        <path fill="#444AAC" d="M169.854 142.879h-.07c-1.714-.09-3.179-1.21-3.932-2.816 1-.069 1.898-.584 2.705-1.432.32.481.825.798 1.399.816h.05c.978 0 1.783-.88 1.81-1.99.022-.918-.495-1.711-1.226-1.993 3.866-8.251 4.746-24.712 4.754-24.855l-.623 25.887c-.109 4.539-2.253 6.383-4.867 6.383"/>
        <path fill="#ABABAB" d="M174.721 73.82l-6.303-2.966 6.37.196-.067 2.77"/>
        <path fill="#EACDB0" d="M169.223 82.449a.604.604 0 0 1 .17-.068c.545-.092.877.229 1.42.309.243.036.65-.505.87.015.08.193.22.695.39 1.107.247.6.881 1.192 1.46 1.557.781.49 1.617.99 2.446 1.34a28.604 28.604 0 0 0 5.59 1.691c.647-3.4 3.104-6.276 6.09-7.128.312-.089.64-.157.953-.069.264.075.495.257.698.461 2.146 2.166.237 4.37-1.236 6.219a30.05 30.05 0 0 1-2.976 3.247c-1.485 1.385-3.139 1.259-4.94.661-1.907-.633-3.83-1.313-5.581-2.394-.852-.526-1.555-1.195-2.33-1.835-.768-.632-.974-.211-1.771-.57-.445-.2-.932-.31-1.337-.602-.728-.522-.787-1.525-.916-2.396-.032-.217-.054-.363.004-.559.093-.318.331-.5.562-.691.136-.113.281-.215.434-.295"/>
        <path fill="#78be20" d="M186.998 87.846l-4.098-3.162c.088.068 3.856-7.292 4.093-7.721.907-1.64 1.857-3.33 3.287-4.391 3.054-2.267 7.027.795 5.916 4.876-1.205 4.43-4.01 8.713-7.332 11.412-.072.058-.15.119-.238.129-.121.014-.234-.067-.334-.145l-1.294-.998"/>
        <path fill="#BB946A" d="M115.93 59.322c.896-1.045 1.105-2.613.522-3.916l-3.195-7.138c-.598-1.337-1.638-2.887-1.802-4.34-.29-2.57.226-5.592.438-8.16.107-1.305.011-3.117.489-4.317.089-.225 1.44-1.949 1.403-2.002l-.283-.481-.423.321-.352-.08.96-1.313-1.39-1.15-1.855.831c-.1 1.412.123 2.883-.274 4.245-.168.576-.418 1.116-.629 1.674-.362.958-.607 1.964-.888 2.955-.271.958-.71 1.859-.966 2.806-.57 2.113-1.127 4.23-1.691 6.346l4.9 12.682c.874 2.261 3.519 2.806 5.036 1.037"/>
        <path fill="#FFE728" d="M124.058 61.132c-2.027-1.335-3.77-3.203-5.084-5.398a13.17 13.17 0 0 1-.1-.245c-.124-.311-1.507-3.718-1.547-3.697l-.103.052-.3.172h-.043c-.702.011-1.875.954-2.527 1.285l-5.197 2.636c-.124.063-.253.131-.33.256-.093.148-.092.34-.077.523l-.462.266c.227.36.43.733.616 1.117.197 1.492.53 2.965 1.337 4.155.047.07.099.137.15.205.418 1.578.809 3.178 1.406 4.67 1.605 4.01 4.652 7.123 6.184 11.169 1.244-.41 2.106-1.671 2.768-2.93 1.299-2.474 2.163-5.203 3.019-7.912l1.305-4.133c.076-.241.153-.49.142-.745-.032-.678-.638-1.103-1.157-1.446"/>
        <path fill="#EAC1A4" d="M106.679 91.625c.019-.766-.03-1.53-.081-2.293-1.001.17-2 .353-2.995.56.05.201.098.4.148.595.324 1.258 1.002 2.904.948 4.218-.01.247-.706 2.41-.655 2.444l.42.331.288-.474.355-.072-.468 1.62 1.667.493 1.456-1.542c-.367-1.354-1.05-2.63-1.124-4.062-.031-.605.026-1.212.04-1.818"/>
        <path fill="#5B5B5B" d="M93.501 75.893c-.277.52 7.98 6.364 7.98 6.364l2.946 11.534h2.707l-1.14-13.996-11.02-12.508-1.473 8.606"/>
        <path fill="#EAB880" d="M23.624 68.159a.554.554 0 0 1 .177.015c.518.162.702.597 1.16.912.204.14.758-.162.772.402.005.208-.046.72-.04 1.164.01.646.37 1.46.76 2.045.526.788 1.098 1.608 1.716 2.292a31.778 31.778 0 0 0 4.405 4.012c1.77-2.75 4.975-4.222 7.942-3.648.31.06.629.146.877.365.21.185.352.45.462.724 1.158 2.896-1.32 4.012-3.285 5.006a25.564 25.564 0 0 1-3.8 1.572c-1.812.574-3.247-.28-4.646-1.619-1.484-1.419-2.964-2.887-4.15-4.637-.578-.85-.971-1.763-1.44-2.682-.464-.909-.797-.625-1.383-1.302-.327-.378-.724-.694-.985-1.136-.467-.792-.168-1.716.023-2.551.047-.208.079-.35.199-.498.195-.242.472-.3.744-.367.162-.04.327-.066.492-.07"/>
        <path fill="#508B41" d="M38.1 83.366c-.987.367-1.968.68-2.923.939-1.424.386-2.985.759-4.303.036-.508-.279-.94-.703-1.364-1.125-2.008-2-3.972-4.056-5.888-6.166a15.534 15.534 0 0 1 2.653-3.681c.292-.299.628-.599 1.022-.616.585-.026 1.03.562 1.38 1.094l1.702 2.601c.185.281.399.584.704.645.199.04.4-.034.592-.11 3.609-1.43 6.363-3.411 9.505-5.816 1.385-1.06 2.827-2.145 4.478-2.455 3.524-.66 6.002 3.854 3.578 7.006-2.763 3.593-6.992 6.104-11.137 7.648"/>
        <path fill="#292949" d="M54.625 156.987l-.055 1.927-3.467 1.801-1.651-1.989 1.761-1.864 3.467-1.802-.055 1.927"/>
        <path fill="#202020" d="M61.653 99.02l-.168 5.851-7.635 25.105.972 26.396-3.406.64-6.926-32.26.536-9.46 3.744-19.195 12.883 2.923"/>
        <path fill="#202020" d="M40.075 99.955l-4.332 24.117-1.234 32.033 3.101.668 6.818-28.333 9.103-27.84-13.456-.645"/>
        <path fill="#292949" d="M37.663 156.352l-.32 1.894-3.673 1.17-1.357-2.254 1.996-1.532 3.354.722"/>
        <path fill="#508B41" d="M64.383 102.413c.043 2.245-.02 5.27-.783 5.38-.143.022-.28-.058-.405-.135-1.321-.815-2.255-1.96-3.557-2.747-1.364-.825-2.925-1.263-4.456-1.57-2.288-.472-4.627-.765-6.96-.81-1.833-.037-3.674.14-5.5.311-1.519.143-2.932.651-4.479.53a9.167 9.167 0 0 1-4.503-1.614c-.05-.034-.102-.073-.123-.135-.023-.067 0-.142.021-.21.324-1.002.557-1.994 1.145-2.825.657-.927 1.124-2.105 1.599-3.16.989-2.2 1.92-4.504 2.612-6.847 1.045-3.185 2.24-6.287 3.25-9.482.7-2.214 1.338-4.469 2.288-6.568.744-1.644 2.07-4.046 3.667-4.77.54-.245 1.137-.267 1.719-.286l5.299-.171c.644-.021 1.313-.037 1.9.263.88.449 1.377 1.492 1.812 2.466 1.949 4.364 3.191 9.07 3.887 13.922.364 2.534.7 5.073.962 7.621.292 2.844.492 5.7.535 8.562.004.318.049 1.208.07 2.275"/>
        <path fill="#FFF" d="M52.598 78.338c-.067 1.13.076 2.262.218 3.384l2.602 20.495-14.228-.14.516-7.679c.11-1.64.22-3.287.527-4.898.495-2.597 1.488-5.042 2.473-7.464L50.17 68.61c.097-.239.2-.486.38-.659.214-.206.507-.275.788-.33 1.356-.266 2.887-.49 4.25-.265.34 1.4-.917 3.836-1.383 5.139-.677 1.896-1.486 3.777-1.607 5.842"/>
        <path fill="#EAB880" d="M51.723 68.594l2.948-.145c.053-.884.044-1.773-.029-2.655.01.107 1.582-.83 1.721-1.042.401-.611.448-1.639.614-2.366.355-1.55.69-3.296-.036-4.672-.751-1.424-2.376-1.912-3.844-1.955-1.843-.054-3.9.552-4.848 2.338-.856 1.613.224 3.992.532 5.697.152.841.384 1.801 1.076 2.156.367.189.813.168 1.14.434.58.468.45 1.47.726 2.21"/>
        <path fill="#202020" d="M45.345 51.568c-.04-.427.042-.84.164-1.247.204-.677.362-1.136.973-1.322.61-.187 1.254-.194 1.872-.348.66-.164 1.3-.496 1.975-.462 1.283.064 2.265 1.408 3.534 1.637 1.755.316 3.368-.592 4.428 1.742.195.429.25.923.42 1.364.223.57.627 1.019.942 1.53 1.389 2.243.94 5.649-.743 7.55-.816.923-1.15 1.757-2.274 2.052.515-1.181-.165-5.89-1.574-6.418-.374-.14-1.495.376-1.908.444-.916.152-1.807.318-2.668.72-1.28.599-2.668 1.023-4.052 1.14-.177.014-.375.022-.509-.11-.125-.124-.151-.33-.17-.518l-.41-4.309c-.11-1.15.11-2.295 0-3.445z"/>
        <path fill="#FFE728" d="M49.47 54.887c1.663-.096 3.332-.192 5.012 0 1.715.195 3.42.687 5.12 1.179l2.168.627c.014.004 0-1.93-.013-2.057-.05-.476-.24-.676-.457-1.036-.228-.376-.197-.41-.23-.858-.072-.98-.404-1.976-.706-2.907-.426-1.313-.907-2.626-1.622-3.751-2.273-3.573-6.07-3.446-9.425-1.781-2.995 1.485-4.062 4.266-4.32 7.732-.012.17-.027.347-.092.492-.293.66-.57.488-.534 1.406.008.192.332 2.224.37 2.197.409-.284.94-.495 1.387-.688.348-.15.711-.252 1.08-.328.741-.152 1.504-.183 2.261-.227"/>
        <path fill="#8B8D96" d="M30.789 74.965l1.646 1.064 4.226-8.334-1.646-1.065-4.226 8.335"/>
        <path fill="#DCDEE2" d="M32.734 66.826l-2.95 5.818 1.005 2.32 4.226-8.334-2.28.196"/>
        <path fill="#474EBB" d="M63.692 81.086l-21.94-14.189-4.724.073-4.96 9.784 2.266 6.364c.697 1.957 1.937 3.605 3.534 4.698l6.443 4.41c.915.627 1.396 1.825 1.21 3.015l-2.375 15.234c-.258 1.656.43 3.316 1.722 4.152l2.032 1.313c2.122 1.372 4.807-.049 5.23-2.769l1.927-12.356c.128-.817.864-1.293 1.565-1.045 1.29.455 3.283.521 4.748-2.366l4.915-9.696c1.18-2.325.466-5.29-1.593-6.622"/>
        <path fill="#8B8D96" d="M31.902 68.467l-1.915-1.24-1.327 2.617 1.915 1.239 1.327-2.616M24.252 64.203L9.179 54.455l-.86 1.699L23.39 65.9l.862-1.698"/>
        <path fill="#E9E9E9" d="M23.05 65.689l-14.735-9.53.148-.29-.145.285 14.734 9.529-.003.006"/>
        <path fill="#81828A" d="M23.052 65.683l-14.734-9.53.145-.285.082-.161 14.734 9.529-.227.447"/>
        <path fill="#E9E9E9" d="M30.548 71.08l-1.893-1.225.005-.01 1.893 1.224-.005.01m-1.728-1.55l.15-.297-.15.297"/>
        <path fill="#81828A" d="M30.553 71.069l-1.893-1.225.31-.612 1.893 1.225-.31.612"/>
        <path fill="#DCDEE2" d="M9.229 57.087L8.07 56.34l2.26-1.485 1.143.757-2.245 1.476M11.514 58.565l-1.158-.749 2.26-1.485 1.142.758-2.244 1.476M13.798 60.042l-1.158-.748 2.26-1.486 1.143.759-2.245 1.475M16.083 61.52l-1.158-.75 2.259-1.484 1.143.758-2.244 1.475M18.367 62.997l-1.157-.749 2.259-1.485 1.143.758-2.245 1.476M20.651 64.474l-1.157-.748 2.259-1.485 1.143.758-2.245 1.475M22.936 65.952l-1.157-.749 2.259-1.485 1.143.758-2.245 1.476M23.7 68.71l4.168 2.695 2.854-5.626-4.17-2.697-2.853 5.627"/>
        <path fill="#8B8D96" d="M24.479 62.87l-1.992 3.927L23.7 68.71l2.853-5.627-2.073-.213"/>
        <path fill="#DDDAE8" d="M47.477 110.69l1.473-9.418c.264-1.688-.438-3.382-1.755-4.234L45.42 95.89l-2.206 14.147 2.473 1.6c.726.47 1.645-.016 1.79-.946"/>
        <path fill="#EAB880" d="M61.078 87.541c.063.261.034.615-.193.702-.136.052-.282-.019-.42-.061-.524-.162-1.13.137-1.382.681-.296.64-.08 1.47.372 1.981.453.511 1.09.755 1.72.884.395.08.842.11 1.159-.17.163-.143.27-.35.365-.558.488-1.063.937-2.468.246-3.551-.544-.853-2.294-1.674-1.867.092"/>
        <path fill="#508B41" d="M65.66 87.787a2.015 2.015 0 0 0-.25-.343c-.785-.863-1.821-1.72-2.98-1.441.148 2.394-.375 4.836-1.476 6.888-.087.163-.182.352-.127.532.101.338 1.009.664 1.286.707 1.222.188 2.544-.373 3.158-1.34.361-.568.484-1.23.596-1.875.173-.997.315-2.237-.206-3.128"/>
        <path fill="#353A85" d="M70.123 57.018l-.11.037c-1.73.596-3.559-.505-4.086-2.458L61.259 37.3l6.372-2.194L72.3 52.403c.527 1.953-.447 4.02-2.176 4.615"/>
        <path fill="#78be20" fill-opacity=".325" d="M72.735 12.093l-27.078 9.32c-2.12.73-4.361-.618-5.007-3.012l-.551-2.043c-.646-2.393.548-4.925 2.667-5.655l27.079-9.32c2.119-.73 4.36.619 5.006 3.012l.552 2.043c.646 2.393-.548 4.925-2.668 5.655"/>
        <path fill="#E9E9E9" d="M46.088 21.265L72.3 12.242l-.014.005-26.18 9.012-.018.006"/>
        <path fill="#78be20" fill-opacity=".369" d="M44.756 21.488c-1.896 0-3.63-1.335-4.196-3.422l-.002-.005L75.31 6.097c.695 2.577-.652 5.324-3.011 6.145l-26.212 9.023a4.14 4.14 0 0 1-1.332.223"/>
        <path fill="#8B8D96" d="M65.15 35.961l-1.41.485-.868-3.22c-.127-.47-.478-.826-.916-.93l-19.92-3.665c-.984-.23-1.747-1.004-2.023-2.026l-1.503-5.57c-.423-1.57.403-3.247 1.84-3.742l.415 1.536c-.66.227-1.04 1-.846 1.72l1.503 5.57c.127.47.478.827.916.93l19.92 3.666c.984.23 1.746 1.004 2.022 2.026l.87 3.22"/>
        <path fill="#D6B197" d="M70.05 57.042l.034-.011a.462.462 0 0 1-.034.012"/>
        <path fill="#E9E9E9" d="M67.242 56.595a3.452 3.452 0 0 1-.133-.104h.001c.043.035.087.07.132.104m5.208-2.984l-.01-.003a4.14 4.14 0 0 0-.134-1.178l.01.035c.103.381.145.767.134 1.146"/>
        <path fill="#D6B197" d="M72.048 55.24a4.075 4.075 0 0 0 .393-1.632l.01.003a3.977 3.977 0 0 1-.403 1.629"/>
        <path fill="#E9E9E9" d="M70.384 45.306l-1.785-6.613v-.003l1.785 6.616"/>
        <path fill="#34387B" d="M69.068 57.206a3.075 3.075 0 0 1-1.958-.715c5.084-2.145 1.539-17.583 1.49-17.798l3.706 13.737c.104.392.146.79.135 1.178a4.075 4.075 0 0 1-.393 1.632c-.405.823-1.091 1.485-1.964 1.79l-.034.012c-.328.111-.658.164-.982.164"/>
        <path fill="#1F1E1E" d="M136.533 44.827c.104-.432.18-.872.23-1.317a2.06 2.06 0 0 1-1.142.11l-.003-.768c-.002-.213-2.555-.363-2.763-.382-1.942-.18-3.719-.351-5.475.826-1.501 1.006-2.463 2.508-2.693 4.463-.22 1.868.32 4.307 1.277 5.858-.005-.498-.258-1.67-.155-2.143.064-.474.209-.93.409-1.352a5.346 5.346 0 0 1 1.731-2.055c1.139-.806 2.463-1.233 3.785-1.44 1.211-.191 2.687-.367 3.884-.005.575.175.671.338 1.02-.318.06-.116.548-1.466.5-1.467l-.605-.01M87.802 55.951c2.514-1.143 5.88 1.213 8.109-.854 2.052-1.904 2.847-5.717 2.226-8.521-2.244 1.17-4.862.514-7.328.703-1.924.147-3.856.86-5.314 2.287-3.24 3.17-2.37 7.337-.355 10.894.547-.35.493-1.895.82-2.584.405-.85 1.044-1.562 1.842-1.925"/>
    </g>
</svg>
